<svg xmlns="http://www.w3.org/2000/svg" viewBox="0 0 151 35.03"><defs><style>.cls-1{fill:#252525;}</style></defs><title>logo_1</title><g id="Layer_2" data-name="Layer 2"><g id="Layer_1-2" data-name="Layer 1"><path class="cls-1" d="M105.48,25c-1.42,0-2.12-1-2.12-3.08a11.6,11.6,0,0,1,.27-2.2q-2.17,4.53-4.23,4.53a2.23,2.23,0,0,1-1.26-.32,1.86,1.86,0,0,1-.73-.86,3,3,0,0,1-.24-1.23,9.13,9.13,0,0,1,1.15-4.08,11.84,11.84,0,0,1,1.57-2.4,4.4,4.4,0,0,1,3.21-1.89,1.52,1.52,0,0,1,1.25.52,1.83,1.83,0,0,1,.42,1.18,2.13,2.13,0,0,1-.42,1.25c-.07.1-.13.14-.2.14s-.09,0-.09-.1a.49.49,0,0,1,.06-.2,1.93,1.93,0,0,0,.14-.79c0-.61-.22-.91-.67-.91a2,2,0,0,0-1.36.74,8.66,8.66,0,0,0-1.29,1.86,14.72,14.72,0,0,0-1,2.33,9.17,9.17,0,0,0-.61,2.87c0,.55.16.82.47.82q1.13,0,3.19-3.36a19.12,19.12,0,0,0,1.43-2.9l.27-.66a5.31,5.31,0,0,1,1.38-2.1,3.86,3.86,0,0,1,2.51-.69c.14,0,.21.05.21.16s-.08.2-.22.26c-.3.13-.71.7-1.22,1.71q-2.49,4.89-2.49,7.29c0,.92.32,1.37,1,1.37a3.12,3.12,0,0,0,2.46-1.74A16.38,16.38,0,0,0,110,18.61c0-.1.09-.14.17-.14s.23.06.23.18a2.26,2.26,0,0,1-.1.39,12.5,12.5,0,0,1-2.45,4.65A3.24,3.24,0,0,1,105.48,25Z"/><path class="cls-1" d="M112.61,18.24a10.51,10.51,0,0,0,1-2.8c0-.21-.2-.44-.61-.69s-.71-.43-.89-.52c-.21.52-.47,1.22-.79,2.09-.13.36-.25.7-.37,1-.28.77-.46,1.27-.53,1.5s-.09.14-.17.14-.22-.06-.22-.17a3.92,3.92,0,0,1,.23-.87l1.43-4a1,1,0,0,1-.42-.77,1.39,1.39,0,0,1,.62-1.1,1.07,1.07,0,0,1,.65-.24c.19,0,.29.1.29.31a.62.62,0,0,1-.06.26,1.62,1.62,0,0,0-.13.6q0,.56,1.68,1.32c1.12.51,1.69,1,1.69,1.43a11.61,11.61,0,0,1-1.43,3.3A9.78,9.78,0,0,0,113.12,23q0,1.23,1,1.23a3.13,3.13,0,0,0,2.45-1.74,15.68,15.68,0,0,0,1.79-3.88.17.17,0,0,1,.16-.14c.15,0,.23.06.23.17a9.2,9.2,0,0,1-.64,1.8,11.15,11.15,0,0,1-1.91,3.25A3.22,3.22,0,0,1,113.77,25c-1.41,0-2.12-.93-2.12-2.79A10.11,10.11,0,0,1,112.61,18.24Z"/><path class="cls-1" d="M120.91,18.24a10.51,10.51,0,0,0,1-2.8c0-.21-.2-.44-.61-.69s-.71-.43-.89-.52c-.21.52-.47,1.22-.8,2.09-.12.36-.24.7-.36,1l-.54,1.5c0,.09-.08.14-.16.14s-.22-.06-.22-.17a3.4,3.4,0,0,1,.23-.87c.16-.45.63-1.77,1.43-4a1,1,0,0,1-.42-.77,1.37,1.37,0,0,1,.62-1.1,1,1,0,0,1,.64-.24c.2,0,.3.1.3.31a.62.62,0,0,1-.06.26,1.44,1.44,0,0,0-.13.6q0,.56,1.68,1.32c1.12.51,1.68,1,1.68,1.43a11.44,11.44,0,0,1-1.42,3.3A9.84,9.84,0,0,0,121.41,23c0,.82.32,1.23,1,1.23a3.12,3.12,0,0,0,2.44-1.74,15.68,15.68,0,0,0,1.8-3.88c0-.1.08-.14.16-.14s.22.06.22.17a9.56,9.56,0,0,1-.63,1.8,11.15,11.15,0,0,1-1.91,3.25A3.22,3.22,0,0,1,122.07,25C120.66,25,120,24,120,22.18A10.11,10.11,0,0,1,120.91,18.24Z"/><path class="cls-1" d="M134.16,25c-1.41,0-2.12-1-2.12-3.08a11.6,11.6,0,0,1,.27-2.2q-2.16,4.53-4.23,4.53a2.19,2.19,0,0,1-1.25-.32,1.86,1.86,0,0,1-.73-.86,3,3,0,0,1-.24-1.23A9.24,9.24,0,0,1,127,17.73a12.27,12.27,0,0,1,1.57-2.4,4.43,4.43,0,0,1,3.22-1.89A1.5,1.5,0,0,1,133,14a1.79,1.79,0,0,1,.43,1.18,2.13,2.13,0,0,1-.42,1.25.27.27,0,0,1-.2.14c-.06,0-.09,0-.09-.1a.49.49,0,0,1,.06-.2,1.93,1.93,0,0,0,.14-.79c0-.61-.23-.91-.67-.91a1.93,1.93,0,0,0-1.36.74,9,9,0,0,0-1.3,1.86,15.65,15.65,0,0,0-1,2.33,9.17,9.17,0,0,0-.61,2.87c0,.55.16.82.47.82q1.13,0,3.19-3.36a18.23,18.23,0,0,0,1.42-2.9l.27-.66a5.21,5.21,0,0,1,1.39-2.1,3.84,3.84,0,0,1,2.5-.69c.15,0,.22.05.22.16s-.08.2-.23.26A4.2,4.2,0,0,0,136,15.57q-2.48,4.89-2.48,7.29c0,.92.32,1.37.95,1.37a3.12,3.12,0,0,0,2.46-1.74,16.79,16.79,0,0,0,1.78-3.88.17.17,0,0,1,.17-.14c.15,0,.23.06.23.18A3,3,0,0,1,139,19a12.5,12.5,0,0,1-2.44,4.65A3.25,3.25,0,0,1,134.16,25Z"/><path class="cls-1" d="M138.51,35a2.7,2.7,0,0,1-2.26-.88,2.51,2.51,0,0,1-.55-1.6,4.27,4.27,0,0,1,.52-1.93,9.77,9.77,0,0,1,4.11-3.8c1.62-.93,2.77-1.61,3.44-2.06.14-1.39.28-2.62.44-3.68Q142.57,25,140.54,25a1.88,1.88,0,0,1-1.58-.75,4.14,4.14,0,0,1-.65-2.55,14.55,14.55,0,0,1,.27-2.48,17.62,17.62,0,0,1,.82-3,5.06,5.06,0,0,1,1.32-2.1,3.76,3.76,0,0,1,2.48-.69.18.18,0,0,1,.21.2c0,.09-.07.16-.21.22-.3.13-.68.7-1.16,1.71-1.48,3.16-2.23,5.56-2.23,7.21,0,1,.34,1.45,1,1.45q1.43,0,2.94-3.58c.35-.82.83-2.15,1.46-4a5.48,5.48,0,0,1,1.64-2.54,4,4,0,0,1,2.5-.68c.15,0,.23.05.23.16s-.07.2-.21.29c-1.49.94-2.51,3.1-3.06,6.46-.15.93-.3,2-.46,3.32.55-.37,1-.68,1.32-.93a9,9,0,0,0,3.43-4.13c0-.09-149.87,7.31-149.77,7.31S151,18.54,151,18.67.87,25.83.84,25.92c-.57,1.5,148.38-4.14,146.6-2.82-.53.39-1.08.77-1.64,1.14Q144.64,35,138.51,35Zm-.17-.71q3.3,0,4.87-6a20.75,20.75,0,0,0,.51-2.91c-.5.35-1.06.71-1.68,1.07a21.69,21.69,0,0,0-2.77,1.84,7.19,7.19,0,0,0-2.2,2.65,4.06,4.06,0,0,0-.29,1.51,2.22,2.22,0,0,0,.38,1.31A1.31,1.31,0,0,0,138.34,34.32Z"/><path class="cls-1" d="M.84,25.92V.29h16V3.06H4.11v8.46h12v2.77h-12V25.92Z"/><path class="cls-1" d="M31.51,26.21a11.94,11.94,0,0,1-6.28-1.59,10.42,10.42,0,0,1-4.09-4.53,15.8,15.8,0,0,1-1.44-7,15.9,15.9,0,0,1,1.42-7,10.52,10.52,0,0,1,4.07-4.52A12.15,12.15,0,0,1,31.51,0a12.05,12.05,0,0,1,6.28,1.58A10.46,10.46,0,0,1,41.86,6.1a15.82,15.82,0,0,1,1.42,7,15.87,15.87,0,0,1-1.44,7,10.5,10.5,0,0,1-4.07,4.53A11.86,11.86,0,0,1,31.51,26.21Zm0-2.77a7.54,7.54,0,0,0,6.14-2.69c1.47-1.78,2.21-4.35,2.21-7.68s-.74-5.89-2.21-7.65a7.57,7.57,0,0,0-6.14-2.65,7.56,7.56,0,0,0-6.17,2.67c-1.48,1.77-2.22,4.32-2.22,7.63s.74,5.87,2.22,7.67A7.53,7.53,0,0,0,31.51,23.44Z"/><path class="cls-1" d="M48.54,25.92V.29h2.52l16,21.2-.9.25V.29h3.17V25.92H66.75L50.8,4.75l.83-.29V25.92Z"/><path class="cls-1" d="M81.58,25.92V3.1H72.8V.29h21V3.1H85V25.92Z"/><path class="cls-1" d="M1,30.47c90.46-3.1,132.64-1.91,132.64-1.91S89.09,27.77,0,28"/></g></g></svg>